<?xml version="1.0" encoding="utf-8"?>
<!-- Svg Vector Icons : http://www.onlinewebfonts.com/icon -->
<!DOCTYPE svg PUBLIC "-//W3C//DTD SVG 1.1//EN" "http://www.w3.org/Graphics/SVG/1.1/DTD/svg11.dtd">
<svg version="1.1" xmlns="http://www.w3.org/2000/svg" xmlns:xlink="http://www.w3.org/1999/xlink" x="0px" y="0px" viewBox="0 0 1000 1000" enable-background="new 0 0 1000 1000" xml:space="preserve">
<metadata> Svg Vector Icons : http://www.onlinewebfonts.com/icon </metadata>
<g><path d="M969.9,264.9L407,834c-0.1,0.1-0.4,0.1-0.6,0.3c-0.2,0.1-0.2,0.6-0.6,0.6c-4.4,4.6-9.9,6.9-15.1,9.9c-2.7,1.6-4.8,3.9-7.5,5c-8.5,3.4-17.4,5-26.4,5s-18-1.6-26.6-5.3c-2.7-1.3-5-3.6-7.6-5c-5.1-3-10.7-5.8-15.3-10.2c-0.1-0.1-0.1-0.3-0.3-0.4c-0.1-0.1-0.4-0.1-0.6-0.6L29.8,549.1c-27-27.8-26.3-72.4,1.5-99.6c27.8-26.8,72.3-26.4,99.3,1.7l226.7,232.9L869.8,166c27.1-27.7,71.6-27.8,99.2-0.5C996.6,192.7,997.1,237.4,969.9,264.9L969.9,264.9L969.9,264.9z"/></g>
</svg>