<?xml version="1.0" encoding="utf-8"?>
<!-- Svg Vector Icons : http://www.onlinewebfonts.com/icon -->
<!DOCTYPE svg PUBLIC "-//W3C//DTD SVG 1.1//EN" "http://www.w3.org/Graphics/SVG/1.1/DTD/svg11.dtd">
<svg version="1.1" xmlns="http://www.w3.org/2000/svg" xmlns:xlink="http://www.w3.org/1999/xlink" x="0px" y="0px" viewBox="0 0 1000 1000" enable-background="new 0 0 1000 1000" xml:space="preserve">
<metadata> Svg Vector Icons : http://www.onlinewebfonts.com/icon </metadata>
<g><path d="M742.8,10H140.7c0,0-75.8,1-86.1,87.1v800.6c0,0-0.8,92.3,102.1,92.3h701c0,0,81.3-4.5,87.7-88.3V254.2l-89.3,67l-1.6,579l-710.5-0.8V98.7h533.5L742.8,10z"/><path d="M818.8,52.4l94.5,73.6L933,99.7c0,0,15-19.7,0-43.7c0,0-13.8-22.7-37.1-35.9c0,0-31.7-17.3-52.6,3.6L818.8,52.4z"/><path d="M883.4,164.9L722.5,378.4c0,0-14.4,26.3-39.5,38.3l-71.2,34.1c0,0-19.1,9.6-23.3-16.7l12.6-78.4c0,0-1.2-14.4,17.9-39.5L789.5,90.7L883.4,164.9z"/><path d="M287.7,565.6h421.7c0,0,13.8-3.6,13.2,19.7l0,39.5c0,0-3,10.8-19.2,8.4l-411.5,0.3c0,0-14.4,0.8-15.6-12.9v-45.5C276.3,575.2,278.7,565.6,287.7,565.6z"/><path d="M287.7,722.3h421.7c0,0,13.8-3.6,13.2,19.7l0,39.5c0,0-3,10.8-19.2,8.4l-411.5,0.3c0,0-14.4,0.8-15.6-12.9v-45.5C276.3,731.9,278.7,722.3,287.7,722.3z"/></g>
</svg>