<?xml version="1.0" encoding="utf-8"?>
<!-- Svg Vector Icons : http://www.onlinewebfonts.com/icon -->
<!DOCTYPE svg PUBLIC "-//W3C//DTD SVG 1.1//EN" "http://www.w3.org/Graphics/SVG/1.1/DTD/svg11.dtd">
<svg version="1.1" xmlns="http://www.w3.org/2000/svg" xmlns:xlink="http://www.w3.org/1999/xlink" x="0px" y="0px" viewBox="0 0 1000 1000" enable-background="new 0 0 1000 1000" xml:space="preserve">
<metadata> Svg Vector Icons : http://www.onlinewebfonts.com/icon </metadata>
<g><path d="M849.1,270.3c-12.3,0-24.5,12.3-24.5,24.5v594.1c0,12.3-12.3,24.5-24.5,24.5H206c-12.3,0-24.5-12.3-24.5-24.5V294.8c0-12.2-12.3-24.5-24.5-24.5s-24.5,6.1-24.5,24.5v594.1c0,42.9,30.6,73.5,73.5,73.5h594.1c42.9,0,73.5-30.6,73.5-73.5V294.8C873.6,276.4,861.4,270.3,849.1,270.3z"/><path d="M402,809.3V294.8c0-12.2-12.2-24.5-24.5-24.5S353,282.6,353,294.8v514.5c0,12.3,12.2,24.5,24.5,24.5S402,821.6,402,809.3z"/><path d="M653.1,809.3V294.8c0-12.2-12.3-24.5-24.5-24.5s-24.5,12.3-24.5,24.5v514.5c0,12.3,12.3,24.5,24.5,24.5S653.1,821.6,653.1,809.3z"/><path d="M965.5,141.7H702.1l-98-98c-6.1-6.1-12.3-6.1-18.4-6.1H414.3c-6.1,0-12.3,0-18.4,6.1l-110.3,98H34.5c-12.3,0-24.5,6.1-24.5,24.5c0,12.3,12.3,24.5,24.5,24.5h257.3c6.1,0,12.3,0,18.4-6.1l116.4-98h153.1l98,98c0,0,6.1,6.1,12.3,6.1h269.5c18.4,0,30.6-12.3,30.6-24.5C990,147.8,977.8,141.7,965.5,141.7z"/></g>
</svg>